# xmcd
#
# Track frame offsets: 
#        183
#        24153
#        41913
#        63790
#        78438
#        90043
#        112098
#        135148
#        151948
#
# Disc length: 2464 seconds
#
# Revision: 4
# Processed by: cddbd v1.5.2PL0 Copyright (c) Steve Scherf et al.
# Submitted via: ExactAudioCopyFreeDBPlugin 1.0
#
DISCID=5a099e09
DTITLE=Black Cat Bones - Barbed Wire Sandwich
DYEAR=1969
DGENRE=Rock
TTITLE0=Chauffeur
TTITLE1=Death Valley Blues
TTITLE2=Feelin´ Good
TTITLE3=Tell Me Baby
TTITLE4=Coming Back
TTITLE5=Save My Love
TTITLE6=Four Women
TTITLE7=Sylvester´s Blues
TTITLE8=Good Lookin´ Woman
EXTD=
EXTT0=
EXTT1=
EXTT2=
EXTT3=
EXTT4=
EXTT5=
EXTT6=
EXTT7=
EXTT8=
PLAYORDER=
